HIERARCHY
ROOT root
{
	OFFSET	0	13.1	24.9
	CHANNELS 6  Xposition Yposition Zposition Xrotation Yrotation Zrotation
	JOINT spine_1
	{
		OFFSET	0	9.99999	0
		CHANNELS 3  Xrotation Yrotation Zrotation
		JOINT spine_2
		{
			OFFSET	0	112	-10
			CHANNELS 3  Xrotation Yrotation Zrotation
			JOINT spine_3
			{
				OFFSET	0	206.5	19.3
				CHANNELS 3  Xrotation Yrotation Zrotation
				JOINT spine_4
				{
					OFFSET	0	110.4	14.6
					CHANNELS 3  Xrotation Yrotation Zrotation
					JOINT neck_1
					{
						OFFSET	0	71.8	-50.3
						CHANNELS 3  Xrotation Yrotation Zrotation
						JOINT neck_2
						{
							OFFSET	0	86.2	-25.8
							CHANNELS 3  Xrotation Yrotation Zrotation
							JOINT head_ee
							{
								OFFSET	0	179.8	-8.7
								CHANNELS 3  Xrotation Yrotation Zrotation
								End Site
								{
									OFFSET	1	0	0
								}
							}
						}
					}
					JOINT left_clavicle
					{
						OFFSET	-43.2	22.4	-70.8
						CHANNELS 3  Xrotation Yrotation Zrotation
						JOINT left_shoulder
						{
							OFFSET	-93.9	-5.79999	48.7
							CHANNELS 3  Xrotation Yrotation Zrotation
							JOINT left_elbow
							{
								OFFSET	-291.4	-30.8	15.2
								CHANNELS 3  Xrotation Yrotation Zrotation
								JOINT left_lowarm_twist
								{
									OFFSET	-110.7	-3.89999	13.6
									CHANNELS 3  Xrotation Yrotation Zrotation
									JOINT left_hand
									{
										OFFSET	-110.7	-3.89999	13.6
										CHANNELS 3  Xrotation Yrotation Zrotation
										JOINT left_ee
										{
											OFFSET	-80.8	-5.10001	12.1
											CHANNELS 3  Xrotation Yrotation Zrotation
											End Site
											{
												OFFSET	1	0	0
											}
										}
									}
								}
							}
						}
					}
					JOINT right_clavicle
					{
						OFFSET	43.2	22.4	-70.8
						CHANNELS 3  Xrotation Yrotation Zrotation
						JOINT right_shoulder
						{
							OFFSET	93.9	-5.79999	48.7
							CHANNELS 3  Xrotation Yrotation Zrotation
							JOINT right_elbow
							{
								OFFSET	291.4	-30.8	15.2
								CHANNELS 3  Xrotation Yrotation Zrotation
								JOINT right_lowarm_twist
								{
									OFFSET	110.7	-3.89999	13.6
									CHANNELS 3  Xrotation Yrotation Zrotation
									JOINT right_hand
									{
										OFFSET	110.7	-3.89999	13.6
										CHANNELS 3  Xrotation Yrotation Zrotation
										JOINT right_ee
										{
											OFFSET	80.8	-5.10001	12.1
											CHANNELS 3  Xrotation Yrotation Zrotation
											End Site
											{
												OFFSET	1	0	0
											}
										}
									}
								}
							}
						}
					}
				}
			}
		}
	}
	JOINT left_hip
	{
		OFFSET	-82.8	-127.5	0.300001
		CHANNELS 3  Xrotation Yrotation Zrotation
		JOINT left_knee
		{
			OFFSET	-28.2	-396.7	2.2
			CHANNELS 3  Xrotation Yrotation Zrotation
			JOINT left_ankle
			{
				OFFSET	-11.7	-411.3	35.4
				CHANNELS 3  Xrotation Yrotation Zrotation
				JOINT left_toes
				{
					OFFSET	0	-60	-88.6
					CHANNELS 3  Xrotation Yrotation Zrotation
					JOINT left_foot_ee
					{
						OFFSET	-22.5	-16.5	-42.2
						CHANNELS 3  Xrotation Yrotation Zrotation
						End Site
						{
							OFFSET	1	0	0
						}
					}
				}
			}
		}
	}
	JOINT right_hip
	{
		OFFSET	82.8	-127.5	0.300001
		CHANNELS 3  Xrotation Yrotation Zrotation
		JOINT right_knee
		{
			OFFSET	28.2	-396.7	2.2
			CHANNELS 3  Xrotation Yrotation Zrotation
			JOINT right_ankle
			{
				OFFSET	11.7	-411.3	35.4
				CHANNELS 3  Xrotation Yrotation Zrotation
				JOINT right_toes
				{
					OFFSET	0	-60	-88.6
					CHANNELS 3  Xrotation Yrotation Zrotation
					JOINT right_foot_ee
					{
						OFFSET	22.5	-16.5	-42.2
						CHANNELS 3  Xrotation Yrotation Zrotation
						End Site
						{
							OFFSET	1	0	0
						}
					}
				}
			}
		}
	}
}
MOTION
Frames: 7
Frame Time: 0.02
3177.02 653.055 -1669.29 -18.4731510329 8.86049752435 6.00101808231 6.19095 -0.0304248 0.875941 6.19137 -0.0860994 0.87223 6.18958 -0.175964 0.858625 6.18856 -0.0381577 0.875638 -4.33572 14.275 -3.03556 -4.02707 28.4678 -0.815825 -0.0 0.0 -0.0 -0.223196 16.2966 1.56359 -33.5772 -29.2532 69.3096 0.5211 -14.4744 0.0661744 33.3984 -0.0511256 -4.20631 1.06202 5.30885 9.22654 -0.0 0.0 -0.0 9.69552 13.1146 -19.0918 -14.718 19.1186 -57.299 2.3334 49.1289 -1.06668 11.93 -0.265204 1.49813 1.05774 5.06558 -4.989 0.0 0.0 0.0 37.8413 -16.0207 -12.3945 0.0996417 -0.00411582 -0.014737 -3.97239 8.2248 0.586366 -16.4543 0.0 0.0 -0.0 0.0 -0.0 3.58449 28.226 1.64246 -14.6401 -0.320969 -2.21767 39.0216 -21.0364 4.96156 2.99697 -0.0 -0.0 0.0 0.0 0.0 
3177.02 653.055 -1669.29 -18.4936473836 9.24533058027 6.13127976386 6.19095 -0.0304248 0.875941 6.19137 -0.0860994 0.87223 6.18958 -0.175964 0.858625 6.18856 -0.0381577 0.875638 -4.33572 14.275 -3.03556 -4.02707 28.4678 -0.815825 -0.0 0.0 -0.0 -0.223196 16.2966 1.56359 -33.5772 -29.2532 69.3096 0.5211 -14.4744 0.0661744 33.3984 -0.0511256 -4.20631 1.06202 5.30885 9.22654 -0.0 0.0 -0.0 9.69552 13.1146 -19.0918 -14.718 19.1186 -57.299 2.3334 49.1289 -1.06668 11.93 -0.265204 1.49813 1.05774 5.06558 -4.989 0.0 0.0 0.0 37.8413 -16.0207 -12.3945 0.0996417 -0.00411582 -0.014737 -3.97239 8.2248 0.586366 -16.4543 0.0 0.0 -0.0 0.0 -0.0 3.58449 28.226 1.64246 -14.6401 -0.320969 -2.21767 39.0216 -21.0364 4.96156 2.99697 -0.0 -0.0 0.0 0.0 0.0 
3160.74707305 654.218 -1690.59406648 -17.812681437 7.85621346564 5.30824820321 6.08579 -0.00365843 0.922704 6.08626 -0.0623625 0.920602 6.08473 -0.159027 0.908906 6.08357 -0.0134927 0.922613 -3.55344 14.2829 -2.42755 -3.20095 27.9367 -0.3809 -0.0 0.0 -0.0 -0.691839 15.6505 0.743198 -33.14 -29.622 69.5456 0.534452 -14.8291 0.0695517 33.6339 -0.0601837 -4.23501 1.0975 5.26314 9.44489 -0.0 0.0 -0.0 9.67451 12.916 -19.0522 -15.576 18.7868 -58.2308 2.33478 49.1457 -1.06773 11.1224 -0.257152 1.39529 1.02037 4.87518 -4.81614 0.0 0.0 0.0 37.4038 -15.5778 -11.6897 -2.03157 0.0783011 0.301928 -3.82523 10.6647 0.564856 -16.1889 0.0 0.0 -0.0 0.0 -0.0 3.37418 28.4214 2.55447 -17.6344 -0.316296 -2.67701 38.9154 -22.2576 4.98262 2.815 -0.0 -0.0 0.0 0.0 0.0 
3160.59115069 654.218 -1690.47405793 -17.8308989652 8.25655866304 5.43823553175 6.08579 -0.00365843 0.922704 6.08626 -0.0623625 0.920602 6.08473 -0.159027 0.908906 6.08357 -0.0134927 0.922613 -3.55344 14.2829 -2.42755 -3.20095 27.9367 -0.3809 -0.0 0.0 -0.0 -0.691839 15.6505 0.743198 -33.14 -29.622 69.5456 0.534452 -14.8291 0.0695517 33.6339 -0.0601837 -4.23501 1.0975 5.26314 9.44489 -0.0 0.0 -0.0 9.67451 12.916 -19.0522 -15.576 18.7868 -58.2308 2.33478 49.1457 -1.06773 11.1224 -0.257152 1.39529 1.02037 4.87518 -4.81614 0.0 0.0 0.0 37.4038 -15.5778 -11.6897 -2.03157 0.0783011 0.301928 -3.82523 10.6647 0.564856 -16.1889 0.0 0.0 -0.0 0.0 -0.0 3.37418 28.4214 2.55447 -17.6344 -0.316296 -2.67701 38.9154 -22.2576 4.98262 2.815 -0.0 -0.0 0.0 0.0 0.0 
3137.47216831 654.769 -1710.83219432 -17.1733478843 7.46428540436 5.30212941778 6.1311 -0.072623 0.91569 6.13156 -0.130741 0.909214 6.12898 -0.225145 0.890548 6.12788 -0.0816799 0.914926 -2.84814 13.9353 -2.87528 -2.42901 27.562 -1.07441 -0.0 0.0 -0.0 -0.727375 15.4137 0.655241 -31.9467 -30.0161 69.8579 0.536304 -14.8782 0.0700266 33.7192 -0.063496 -4.24541 1.07895 5.21972 9.30446 -0.0 0.0 -0.0 9.46837 13.1767 -18.59 -16.9248 18.2596 -59.2827 2.2632 48.2616 -1.01394 10.752 -0.252975 1.34817 0.991092 5.20196 -4.48098 0.0 0.0 0.0 36.1861 -16.0059 -11.7569 -4.43183 0.156933 0.661878 -3.96059 12.3571 0.585892 -16.0612 0.0 0.0 -0.0 0.0 -0.0 3.29574 29.162 3.36334 -19.4248 -0.302038 -2.95134 38.8376 -23.3441 5.00505 2.71101 -0.0 -0.0 0.0 0.0 0.0 
3120.21940095 660.799 -1731.55963905 -16.8345494896 5.94105921721 5.43344040562 6.11173 -0.0500898 0.941165 6.11221 -0.109874 0.936071 6.10988 -0.207507 0.919372 6.1087 -0.059712 0.940604 -3.56613 14.2689 -1.6562 -3.24886 27.3261 0.426527 -0.0 0.0 -0.0 -0.714519 14.0378 0.49225 -28.0222 -29.8403 68.2062 0.531769 -14.7579 0.0688668 34.0341 -0.0758508 -4.28372 0.813228 5.47298 7.64036 -0.0 0.0 -0.0 9.24879 13.342 -18.102 -17.9639 17.8405 -60.5689 2.09873 46.108 -0.893276 10.7477 -0.252924 1.34762 0.796662 4.12151 -3.62086 0.0 0.0 0.0 35.4115 -16.0789 -11.7108 -8.70095 0.259269 1.30888 -0.874668 17.2373 0.129786 -15.6113 0.0 0.0 -0.0 0.0 -0.0 4.90452 29.6641 2.59515 -20.9833 -0.282655 -3.18967 38.5636 -25.9227 5.05757 2.57677 -0.0 -0.0 0.0 0.0 0.0 
3120.15456343 660.799 -1731.50043421 -16.8363571367 5.99818797779 5.45082142826 6.11173 -0.0500898 0.941165 6.11221 -0.109874 0.936071 6.10988 -0.207507 0.919372 6.1087 -0.059712 0.940604 -3.56613 14.2689 -1.6562 -3.24886 27.3261 0.426527 -0.0 0.0 -0.0 -0.714519 14.0378 0.49225 -28.0222 -29.8403 68.2062 0.531769 -14.7579 0.0688668 34.0341 -0.0758508 -4.28372 0.813228 5.47298 7.64036 -0.0 0.0 -0.0 9.24879 13.342 -18.102 -17.9639 17.8405 -60.5689 2.09873 46.108 -0.893276 10.7477 -0.252924 1.34762 0.796662 4.12151 -3.62086 0.0 0.0 0.0 35.4115 -16.0789 -11.7108 -8.70095 0.259269 1.30888 -0.874668 17.2373 0.129786 -15.6113 0.0 0.0 -0.0 0.0 -0.0 4.90452 29.6641 2.59515 -20.9833 -0.282655 -3.18967 38.5636 -25.9227 5.05757 2.57677 -0.0 -0.0 0.0 0.0 0.0 
